<?xml version="1.0" encoding="UTF-8"?>
<svg version="1.1" xmlns="http://www.w3.org/2000/svg" width="1043" height="842">
<path d="M0 0 C32.67 0 65.34 0 99 0 C103.49945097 11.24862743 103.49945097 11.24862743 105.02026367 15.60595703 C105.36619064 16.59338898 105.71211761 17.58082092 106.06852722 18.59817505 C106.61275078 20.16219559 106.61275078 20.16219559 107.16796875 21.7578125 C107.55974808 22.87759491 107.9515274 23.99737732 108.35517883 25.15109253 C109.19621745 27.55547946 110.03629284 29.9602035 110.87548828 32.36523438 C112.89567007 38.15436716 114.92182692 43.94140575 116.94807816 49.72841644 C117.40823777 51.04272487 117.86831787 52.35706115 118.32831955 53.67142487 C122.68711348 66.12558288 127.08574673 78.56539806 131.5 91 C138.13721789 109.70304213 144.71744704 128.42569238 151.28076172 147.15478516 C157.32899424 164.41200801 163.41053747 181.656983 169.5256958 198.89059448 C176.37719087 218.20277564 183.1644303 237.53728735 189.93652344 256.87744141 C193.5028557 267.05887958 197.07158881 277.2389222 200.7109375 287.39453125 C200.98009979 288.14676468 201.24926208 288.89899811 201.52658081 289.67402649 C202.7137224 292.99020009 203.90575476 296.30434845 205.10693359 299.61547852 C205.49961426 300.70916748 205.89229492 301.80285645 206.296875 302.9296875 C206.63041992 303.84991699 206.96396484 304.77014648 207.30761719 305.71826172 C208 308 208 308 208 311 C208.66 311 209.32 311 210 311 C210.10908691 310.1754834 210.21817383 309.3509668 210.33056641 308.50146484 C211.09419706 304.50730335 212.34161757 300.79220323 213.7109375 296.9765625 C213.990513 296.18373871 214.2700885 295.39091492 214.55813599 294.57406616 C215.16968045 292.84034769 215.78328206 291.10735381 216.39868164 289.375 C218.10851497 284.55890532 219.80058135 279.73658408 221.4921875 274.9140625 C221.8544342 273.88186584 222.21668091 272.84966919 222.58990479 271.78619385 C226.98820224 259.22308787 231.23993628 246.61048463 235.5 234 C241.37638677 216.61648303 247.31941808 199.26014379 253.39648438 181.94580078 C258.87278097 166.33360381 264.20053633 150.67301637 269.5 135 C275.37369868 117.62869957 281.30969194 100.28306479 287.38439941 82.98104858 C293.9822655 64.17840273 300.37049652 45.30531638 306.74414062 26.42578125 C307.13788879 25.26080612 307.53163696 24.09583099 307.93731689 22.89555359 C308.67482318 20.71303254 309.41118945 18.53012579 310.1461792 16.34675598 C310.64471405 14.87150703 310.64471405 14.87150703 311.15332031 13.36645508 C311.43894836 12.51908279 311.72457642 11.67171051 312.01885986 10.79866028 C313.2880649 7.1783072 314.65295585 3.59211774 316 0 C348.67 0 381.34 0 415 0 C415 132 415 264 415 400 C392.56 400 370.12 400 347 400 C346.67 299.68 346.34 199.36 346 96 C340.06 112.83 334.12 129.66 328 147 C318.97603197 172.00534654 318.97603197 172.00534654 315.60546875 181.28515625 C310.49691384 195.36671372 305.43068562 209.46346193 300.36644745 223.56100082 C299.62507052 225.62480369 298.88361592 227.68857864 298.14215088 229.75234985 C291.09284498 249.37400095 284.05481436 268.99968439 277.02218628 288.62731934 C270.51746322 306.78087917 263.99134812 324.92667356 257.45629883 343.06933594 C250.62288814 362.04098325 243.809683 381.01981971 237 400 C217.53 400 198.06 400 178 400 C174.63442187 391.92261248 171.44896085 383.91758434 168.55078125 375.6796875 C168.14104568 374.52403793 167.73131012 373.36838837 167.30915833 372.17771912 C166.20413588 369.05996561 165.1018676 365.94125465 164.00058746 362.82217789 C162.11466245 357.48531059 160.21967784 352.15164573 158.3265686 346.81732368 C157.60401241 344.78105206 156.88182309 342.74465058 156.15966797 340.70823669 C151.85148351 328.56307413 147.49739165 316.43468197 143.125 304.3125 C142.39711291 302.29362791 141.66924857 300.27474761 140.94140625 298.25585938 C139.81875659 295.1420021 138.69605707 292.02816288 137.57315063 288.91439819 C133.12994763 276.59157601 128.70082547 264.26369437 124.27157593 251.93585205 C122.80995473 247.86779225 121.3479838 243.79985818 119.88598633 239.73193359 C115.45156052 227.39295494 111.01851966 215.05348279 106.59028625 202.71228027 C104.8743135 197.93004749 103.15756697 193.14809257 101.44066906 188.36619186 C100.3007746 185.19118937 99.16138125 182.01600962 98.02285767 178.84051514 C88.10983038 151.19232887 78.03772213 123.60373587 68 96 C67.67 196.32 67.34 296.64 67 400 C44.89 400 22.78 400 0 400 C0 268 0 136 0 0 Z " fill="#000000" transform="translate(0,435)"/>
<path d="M0 0 C23.1 0 46.2 0 70 0 C70 52.14 70 104.28 70 158 C129.73 158 189.46 158 251 158 C251 105.86 251 53.72 251 0 C274.43 0 297.86 0 322 0 C322 132 322 264 322 400 C298.57 400 275.14 400 251 400 C251 340.6 251 281.2 251 220 C191.27 220 131.54 220 70 220 C70 279.4 70 338.8 70 400 C46.9 400 23.8 400 0 400 C0 268 0 136 0 0 Z " fill="#000000" transform="translate(0,0)"/>
<path d="M0 0 C23.43 0 46.86 0 71 0 C71.33 59.07 71.66 118.14 72 179 C75.63 175.04 79.26 171.08 83 167 C86.10060039 163.83521827 89.2104534 160.69330084 92.359375 157.578125 C93.60959442 156.33358551 93.60959442 156.33358551 94.8850708 155.06390381 C97.50424217 152.45676868 100.12667882 149.85295905 102.75 147.25 C106.22692602 143.79984407 109.7003956 140.34626021 113.171875 136.890625 C113.9543158 136.11648254 114.73675659 135.34234009 115.54290771 134.54473877 C118.97411669 131.12874785 122.31897248 127.6933258 125.47753906 124.02246094 C129.48651804 119.36704359 133.82309757 115.07006537 138.1875 110.75 C139.47950317 109.46367676 139.47950317 109.46367676 140.79760742 108.15136719 C144.45013983 104.51505061 148.10863635 100.88475629 151.76660156 97.25390625 C154.45065156 94.58802403 157.13163241 91.9190819 159.8125 89.25 C160.62936279 88.44143555 161.44622559 87.63287109 162.2878418 86.79980469 C165.80661185 83.2959802 169.24770033 79.77940395 172.48632812 76.01367188 C176.5577195 71.28207071 180.97256794 66.92106584 185.40625 62.53125 C186.28978149 61.65150513 187.17331299 60.77176025 188.08361816 59.86535645 C191.3597232 56.60343055 194.6403498 53.34607436 197.92132568 50.08905029 C201.14830538 46.8851274 204.3713808 43.67730884 207.59375 40.46875 C208.43248657 39.63831177 209.27122314 38.80787354 210.13537598 37.95227051 C215.77009649 32.34088217 221.33841747 26.73334186 225.96499634 20.2437439 C232.57168399 11.01802367 240.15739625 1.18265944 251.83221436 -1.21844482 C264.22488424 -3.03277183 276.91525161 -2.21782889 289.3727417 -1.57928467 C294.52687211 -1.34083955 299.68370231 -1.23830734 304.84179688 -1.12304688 C314.90149331 -0.87884299 324.94939022 -0.48823202 335 0 C331.03212573 4.75292036 326.89608126 9.24644341 322.50796509 13.61228943 C321.88213858 14.23897036 321.25631207 14.86565129 320.61152112 15.51132256 C318.53195177 17.59252771 316.44884955 19.6701589 314.36572266 21.74780273 C312.86710484 23.24613824 311.36870766 24.74469445 309.87051392 26.24345398 C305.81538313 30.29887104 301.75718202 34.35120291 297.69841433 38.40297961 C293.45253524 42.64259683 289.20949805 46.88505631 284.96615601 51.12721252 C276.93601857 59.154245 268.90333596 67.17872547 260.86973131 75.20228773 C251.72147702 84.33935496 242.57607056 93.47927036 233.43089986 102.61942375 C214.62376254 121.41611558 195.81305935 140.20923549 177 159 C177.62994873 160.1100943 178.25989746 161.2201886 178.90893555 162.36392212 C179.26328171 162.98835016 179.61762787 163.61277821 179.98271179 164.25612831 C181.15472394 166.26523329 182.43616681 168.14882807 183.8125 170.0234375 C184.32425781 170.72533203 184.83601562 171.42722656 185.36328125 172.15039062 C185.90339844 172.88451172 186.44351563 173.61863281 187 174.375 C188.1674644 175.97598109 189.33411268 177.57755757 190.5 179.1796875 C191.08652344 179.9850293 191.67304687 180.79037109 192.27734375 181.62011719 C194.88533031 185.22310089 197.44417804 188.85991578 200 192.5 C204.12346932 198.36518573 208.29325944 204.19426081 212.5 210 C219.24348241 219.30975489 225.86834937 228.70052336 232.47949219 238.10449219 C238.10578241 246.10443155 243.76278215 254.07912504 249.5 262 C256.24330241 271.30988792 262.86834714 280.70052019 269.47949219 290.10449219 C275.10578241 298.10443155 280.76278215 306.07912504 286.5 314 C293.24330241 323.30988792 299.86834714 332.70052019 306.47949219 342.10449219 C312.10578268 350.10443194 317.76280016 358.07911156 323.5 366 C327.8886285 372.0592621 332.24627755 378.13891277 336.5625 384.25 C337.05105469 384.9409375 337.53960938 385.631875 338.04296875 386.34375 C339.36852088 388.22470107 340.68615198 390.11086063 342 392 C342.60690674 392.86334961 342.60690674 392.86334961 343.22607422 393.74414062 C346 397.76700186 346 397.76700186 346 400 C334.66492561 400.25525702 323.33053834 400.45051178 311.99317169 400.56993389 C306.72813674 400.62726291 301.46507249 400.70496566 296.20117188 400.82983398 C291.11759712 400.9496652 286.03591293 401.01518699 280.95103455 401.04364967 C279.01474744 401.06392189 277.07856003 401.1035142 275.14308167 401.16303062 C259.99081532 401.61028745 259.99081532 401.61028745 255.11335754 397.66511536 C253.04555967 394.85764578 251.5220961 392.12973683 250 389 C248.80072756 387.20759679 247.57861199 385.4300507 246.32421875 383.67578125 C245.11032047 381.88914668 243.89811429 380.10136141 242.6875 378.3125 C241.37394153 376.37874075 240.06013783 374.44514805 238.74609375 372.51171875 C238.10913574 371.57376465 237.47217773 370.63581055 236.81591797 369.66943359 C234.3059189 365.97968772 231.78064593 362.30060496 229.25 358.625 C228.81196045 357.98860596 228.3739209 357.35221191 227.92260742 356.6965332 C227.0520461 355.43204248 226.18136067 354.16763718 225.31054688 352.90332031 C223.03844939 349.60353044 220.76942087 346.30163099 218.5 343 C217.58334714 341.66665718 216.66668049 340.33332383 215.75 339 C206.58333333 325.66666667 197.41666667 312.33333333 188.25 299 C187.79641113 298.3402417 187.34282227 297.6804834 186.87548828 297.00073242 C185.95716639 295.66497667 185.0388722 294.32920188 184.12060547 292.9934082 C181.85448843 289.69698255 179.58791941 286.40086973 177.3203125 283.10546875 C171.81481536 275.10329267 166.32365612 267.09145005 160.84082031 259.07373047 C157.35840768 253.9823812 153.87034392 248.89498013 150.375 243.8125 C149.93260986 243.16917725 149.49021973 242.52585449 149.03442383 241.86303711 C146.71854388 238.49613978 144.40092594 235.13044663 142.08203125 231.765625 C137.3370355 224.87716454 132.59969799 217.98688302 128 211 C127.28293884 211.43560242 126.56587769 211.87120483 125.8270874 212.32000732 C124.05781953 213.37139225 122.27364889 214.39851823 120.46929932 215.38848877 C112.15705024 219.97532751 104.59654677 225.26079658 97.25 231.25 C96.65206509 231.73600803 96.05413017 232.22201607 95.43807602 232.72275162 C79.18544602 246.27338441 71.2591485 261.77160773 69.3098824 282.79149795 C67.8478491 300.3820223 67.95425906 318.05497832 68.3125 335.6875 C68.32795679 336.47243898 68.34341358 337.25737797 68.35933876 338.06610298 C68.47070817 343.56788425 68.60728972 349.06868204 68.76464844 354.56933594 C68.78440184 355.26267989 68.80415524 355.95602384 68.82450724 356.67037821 C69.25673654 371.13287021 70.17986027 385.54885305 71 400 C47.57 400 24.14 400 0 400 C0 268 0 136 0 0 Z " fill="#000000" transform="translate(368,0)"/>
<path d="M0 0 C23.1 0 46.2 0 70 0 C70.02505615 6.9314502 70.0501123 13.86290039 70.07592773 21.00439453 C70.15716147 43.30250858 70.24279256 65.60060436 70.33111694 87.89869136 C70.34488291 91.37500635 70.35861055 94.85132149 70.37231445 98.32763672 C70.37504276 99.01957126 70.37777106 99.71150581 70.38058204 100.42440806 C70.42439446 111.55889087 70.46511681 122.69338287 70.50465261 133.82788159 C70.54543336 145.29314632 70.58970309 156.75839335 70.63687855 168.22363365 C70.66319988 174.64650089 70.68803973 181.06936543 70.70907402 187.49225235 C70.76699507 219.58823268 70.76699507 219.58823268 71.44165039 251.67529297 C71.47758773 252.80488497 71.51352507 253.93447697 71.55055141 255.09829903 C72.5091181 280.20891563 77.01738199 306.78862071 95.171875 325.5 C117.19252538 344.96576829 146.70984499 348.31878918 175 347 C197.85177281 345.21949757 219.90074776 339.28429594 236 322 C259.77133188 293.6262346 257.1151046 251.84513643 257.20532227 217.17407227 C257.21493232 214.78647199 257.22494406 212.39887331 257.23532104 210.01127625 C257.26203809 203.60789414 257.28322444 197.2045049 257.30332303 190.80109906 C257.32314689 184.76344146 257.34722335 178.72580191 257.37124526 172.68815994 C257.41861124 160.74923102 257.46195675 148.81029116 257.50268555 136.87133789 C257.54220001 125.29092564 257.58366292 113.71052299 257.62768555 102.13012695 C257.63177196 101.05491152 257.63177196 101.05491152 257.63594092 99.95797456 C257.64962301 96.36105379 257.66334276 92.76413316 257.67708123 89.16721261 C257.79055758 59.44482799 257.89671527 29.72242223 258 0 C281.1 0 304.2 0 328 0 C328.06625839 34.94773324 328.12160374 69.89540503 328.15319599 104.84318228 C328.15694767 108.97830002 328.16083068 113.11341762 328.16479492 117.24853516 C328.16558185 118.07168924 328.16636878 118.89484332 328.16717956 119.74294147 C328.18019853 133.0343292 328.20383282 146.32567761 328.23145839 159.61704209 C328.25961062 173.27672612 328.27619691 186.93638968 328.28226548 200.59610152 C328.28636167 209.01048542 328.29925222 217.42475814 328.3237494 225.83910778 C328.33972812 231.62575214 328.34437324 237.41233985 328.34050413 243.19900462 C328.33860121 246.5270889 328.34300443 249.85482637 328.35761642 253.18290138 C328.53947617 296.77502945 318.4746282 335.88103736 287.5 367.9375 C256.14220421 399.09880575 209.77096408 409.42164757 166.91812134 409.32363892 C166.0788913 409.31996307 165.23966125 409.31628723 164.375 409.3125 C163.50459076 409.31067719 162.63418152 409.30885437 161.73739624 409.30697632 C116.4853038 409.14808809 71.30101097 398.11311975 38.125 365.625 C31.92300623 359.32846364 26.79221511 352.4075387 22 345 C21.36449219 344.02546875 20.72898437 343.0509375 20.07421875 342.046875 C2.69044538 313.8319701 -0.48275415 281.68467767 -0.34057617 249.30175781 C-0.33804669 246.56977594 -0.34007702 243.83780167 -0.34190369 241.1058197 C-0.3434634 235.26588003 -0.33419225 229.42604228 -0.31719017 223.58612823 C-0.29262545 215.14300478 -0.28497722 206.69992971 -0.2812262 198.2567744 C-0.27468883 184.55250278 -0.25480207 170.84828527 -0.22631836 157.14404297 C-0.19870701 143.84554308 -0.17750824 130.54705799 -0.16479492 117.24853516 C-0.16400675 116.42639185 -0.16321858 115.60424855 -0.16240653 114.75719181 C-0.15849092 110.63201685 -0.15469991 106.50684179 -0.15097082 102.38166666 C-0.1199596 68.25439646 -0.06470277 34.12722708 0 0 Z " fill="#000000" transform="translate(715,0)"/>
<path d="M0 0 C21.78 0 43.56 0 66 0 C66 132 66 264 66 400 C45.21 400 24.42 400 3 400 C2.67 388.12 2.34 376.24 2 364 C-0.97 367.96 -3.94 371.92 -7 376 C-21.14518404 391.34055171 -38.82491851 400.30674436 -59 405 C-59.73992187 405.18546387 -60.47984375 405.37092773 -61.2421875 405.56201172 C-70.82671258 407.66378257 -80.61320989 407.39706717 -90.375 407.375 C-91.3147467 407.37412384 -92.25449341 407.37324768 -93.22271729 407.37234497 C-106.83636884 407.33036071 -119.87712593 406.96274953 -133 403 C-133.81936035 402.76394043 -134.6387207 402.52788086 -135.48291016 402.28466797 C-152.85910021 397.16003006 -168.49579094 389.1624447 -182 377 C-182.825 376.31679688 -183.65 375.63359375 -184.5 374.9296875 C-214.02750719 349.92357984 -226.61234867 309.46579353 -229.80371094 272.09326172 C-230.1901041 266.0042053 -230.24465268 259.91216073 -230.25 253.8125 C-230.25067474 253.11401947 -230.25134949 252.41553894 -230.25204468 251.69589233 C-230.18737665 209.18965542 -219.0572704 167.31043083 -188.75 136.3125 C-163.93734631 111.76326582 -131.20395026 101.73859102 -96.86889648 101.7512207 C-65.26140158 102.07034918 -33.81446492 111.37132063 -11 134 C-2.55342903 142.89314195 -2.55342903 142.89314195 -1 146 C-0.67 97.82 -0.34 49.64 0 0 Z M-139 178 C-160.79433439 203.44771992 -164.28842752 238.98326885 -163 271 C-162.52239788 277.11693987 -161.47404699 283.04868037 -160 289 C-159.83371094 289.67385742 -159.66742187 290.34771484 -159.49609375 291.04199219 C-153.77764483 313.20627662 -141.80104904 333.63126737 -122.25 346.25 C-104.07586949 356.55344407 -80.7416634 359.5177551 -60.4375 354.5 C-39.76839462 348.30789849 -23.41832697 336.22761719 -12.84765625 317.2109375 C4.45565151 284.71545298 6.76168466 245.22963311 -3.81567383 210.16772461 C-7.57037375 198.67738884 -13.07526397 188.15118327 -21 179 C-21.95712891 177.7625 -21.95712891 177.7625 -22.93359375 176.5 C-34.68585872 162.28175883 -53.12635346 155.59357129 -70.875 153.25 C-72.24845022 153.14415139 -73.62380212 153.06040563 -75 153 C-76.10601563 152.94005859 -76.10601563 152.94005859 -77.234375 152.87890625 C-101.23463688 152.21223231 -122.45500983 160.70843822 -139 178 Z " fill="#000000" transform="translate(977,435)"/>
<path d="M0 0 C31.43719111 28.28483541 48.84375789 65.05871092 51.6875 107.30859375 C52.89638158 132.45333059 52.89638158 132.45333059 49.84375 138.55859375 C-22.09625 138.55859375 -94.03625 138.55859375 -168.15625 138.55859375 C-165.75134803 156.45220656 -165.75134803 156.45220656 -161.15625 173.55859375 C-160.85976563 174.44546875 -160.56328125 175.33234375 -160.2578125 176.24609375 C-153.91877738 193.5836257 -141.40959577 206.63780159 -125.03125 214.74609375 C-103.46295655 224.0466411 -77.3707487 225.36104648 -55.26123047 216.82714844 C-40.48404654 210.75747072 -29.49881795 199.92168819 -22.34375 185.80859375 C-21.94994141 185.05449219 -21.55613281 184.30039062 -21.15039062 183.5234375 C-19.60821298 180.544892 -18.21932657 177.74782347 -17.15625 174.55859375 C3.63375 174.55859375 24.42375 174.55859375 45.84375 174.55859375 C45.09110127 180.57978356 44.32045601 184.9901166 42.34375 190.49609375 C41.95171387 191.58809082 41.95171387 191.58809082 41.55175781 192.70214844 C30.04449557 223.5426706 7.31393709 246.95608027 -22.375 260.8515625 C-23.63393847 261.42383599 -24.89427256 261.99305333 -26.15625 262.55859375 C-27.71859375 263.26435547 -27.71859375 263.26435547 -29.3125 263.984375 C-44.11897057 270.14737757 -60.67735974 273.6551911 -76.69140625 273.796875 C-77.59915298 273.80666885 -78.50689972 273.81646271 -79.44215393 273.82655334 C-117.17995116 274.15020719 -117.17995116 274.15020719 -133.15625 269.55859375 C-133.93419922 269.34428711 -134.71214844 269.12998047 -135.51367188 268.90917969 C-169.53507124 259.3065908 -197.07972415 237.44134423 -214.78125 206.99609375 C-223.73395065 190.93505091 -228.84886877 173.56348196 -232.15625 155.55859375 C-232.28757324 154.86475586 -232.41889648 154.17091797 -232.55419922 153.45605469 C-238.58457756 119.91260379 -234.13703267 82.53883013 -220.15625 51.55859375 C-219.87442871 50.9238916 -219.59260742 50.28918945 -219.30224609 49.63525391 C-204.38183079 16.50715344 -177.14522223 -9.70222596 -143.14941406 -22.70800781 C-95.47030013 -40.251866 -39.15185157 -33.22149758 0 0 Z M-149.26953125 45.7890625 C-161.58181761 60.06175174 -166.47741479 77.09140639 -168.15625 95.55859375 C-117.99625 95.55859375 -67.83625 95.55859375 -16.15625 95.55859375 C-17.03857448 85.67414283 -17.03857448 85.67414283 -19.28125 76.24609375 C-19.49934326 75.52607178 -19.71743652 74.8060498 -19.94213867 74.06420898 C-23.58393948 62.57171349 -29.03069977 52.51948092 -37.15625 43.55859375 C-37.85621094 42.77742187 -38.55617188 41.99625 -39.27734375 41.19140625 C-52.31322522 27.38870822 -69.52510884 20.59022469 -88.234375 19.4296875 C-112.21833175 18.76346648 -132.9869862 28.60360367 -149.26953125 45.7890625 Z " fill="#000000" transform="translate(679.15625,568.44140625)"/>
</svg>
