<?xml version="1.0" encoding="UTF-8"?>
<svg version="1.1" xmlns="http://www.w3.org/2000/svg" width="32" height="32">
<path d="M0 0 C10.56 0 21.12 0 32 0 C32 10.56 32 21.12 32 32 C21.44 32 10.88 32 0 32 C0 21.44 0 10.88 0 0 Z " fill="#FBFBFB" transform="translate(0,0)"/>
<path d="M0 0 C0.66 0 1.32 0 2 0 C2 1.32 2 2.64 2 4 C3.32 4 4.64 4 6 4 C6 2.68 6 1.36 6 0 C7.32 0 8.64 0 10 0 C10.33 0.99 10.66 1.98 11 3 C11.4125 2.505 11.825 2.01 12.25 1.5 C14 0 14 0 18 0 C18 2.64 18 5.28 18 8 C19.32 8 20.64 8 22 8 C22 5.36 22 2.72 22 0 C22.66 0 23.32 0 24 0 C24 6.66666667 24 13.33333333 24 20 C21.625 20.125 21.625 20.125 19 20 C18.34 19.34 17.68 18.68 17 18 C16.34 18.66 15.68 19.32 15 20 C13.65938457 19.69728039 12.32594105 19.36162029 11 19 C10.01 19.33 9.02 19.66 8 20 C7.67 19.01 7.34 18.02 7 17 C6.67 17.66 6.34 18.32 6 19 C5.34 19 4.68 19 4 19 C3.67 18.34 3.34 17.68 3 17 C2.67 17.99 2.34 18.98 2 20 C1.34 20 0.68 20 0 20 C0 13.4 0 6.8 0 0 Z " fill="#4E4E4E" transform="translate(4,6)"/>
<path d="M0 0 C0.66 0 1.32 0 2 0 C2 1.32 2 2.64 2 4 C3.32 4 4.64 4 6 4 C6.33 2.68 6.66 1.36 7 0 C7 2.97 7 5.94 7 9 C6.67 8.01 6.34 7.02 6 6 C4.68 6 3.36 6 2 6 C2.66 9.3 3.32 12.6 4 16 C4.66 16 5.32 16 6 16 C6.33 14.35 6.66 12.7 7 11 C7.99 11 8.98 11 10 11 C10.33 11.66 10.66 12.32 11 13 C12.65 13 14.3 13 16 13 C15.67 13.99 15.34 14.98 15 16 C15 15.34 15 14.68 15 14 C14.01 14 13.02 14 12 14 C12 15.32 12 16.64 12 18 C13.32 18.33 14.64 18.66 16 19 C13.10765685 19.82638376 11.11257569 20 8 20 C7.67 19.01 7.34 18.02 7 17 C6.67 17.66 6.34 18.32 6 19 C5.34 19 4.68 19 4 19 C3.67 18.34 3.34 17.68 3 17 C2.67 17.99 2.34 18.98 2 20 C1.34 20 0.68 20 0 20 C0 13.4 0 6.8 0 0 Z " fill="#2D2D2D" transform="translate(4,6)"/>
<path d="M0 0 C0.66 0 1.32 0 2 0 C2 3.3 2 6.6 2 10 C-3 10 -3 10 -6 8 C-7.32 8 -8.64 8 -10 8 C-10 6.68 -10 5.36 -10 4 C-9.071875 3.855625 -8.14375 3.71125 -7.1875 3.5625 C-3.99274889 3.07899889 -3.99274889 3.07899889 -1 2 C-0.67 1.34 -0.34 0.68 0 0 Z " fill="#6F6F6F" transform="translate(26,16)"/>
<path d="M0 0 C1.98 0.99 1.98 0.99 4 2 C4 2.66 4 3.32 4 4 C4.66 4 5.32 4 6 4 C6.33 3.34 6.66 2.68 7 2 C9.475 2.99 9.475 2.99 12 4 C11.67 4.99 11.34 5.98 11 7 C7.26562152 7.87867729 3.83225427 8.08912219 0 8 C0 5.36 0 2.72 0 0 Z " fill="#EEEEEE" transform="translate(14,12)"/>
<path d="M0 0 C0.66 0 1.32 0 2 0 C2 1.32 2 2.64 2 4 C3.32 4 4.64 4 6 4 C6.33 2.68 6.66 1.36 7 0 C7 2.97 7 5.94 7 9 C6.67 8.01 6.34 7.02 6 6 C4.68 6 3.36 6 2 6 C2.33 7.65 2.66 9.3 3 11 C2.01 11 1.02 11 0 11 C0 7.37 0 3.74 0 0 Z " fill="#2E2E2E" transform="translate(4,6)"/>
<path d="M0 0 C0.66 0.66 1.32 1.32 2 2 C4.58354218 2.16687448 4.58354218 2.16687448 7 2 C6.67 2.99 6.34 3.98 6 5 C6 4.34 6 3.68 6 3 C5.01 3 4.02 3 3 3 C3 4.32 3 5.64 3 7 C4.32 7.33 5.64 7.66 7 8 C4.10765685 8.82638376 2.11257569 9 -1 9 C-1.33 7.02 -1.66 5.04 -2 3 C-1.34 3 -0.68 3 0 3 C0 2.01 0 1.02 0 0 Z " fill="#484848" transform="translate(13,17)"/>
<path d="M0 0 C1.32 0 2.64 0 4 0 C5.125 6.625 5.125 6.625 4 10 C3.34 10 2.68 10 2 10 C0.68373308 6.38026598 0 3.90432869 0 0 Z " fill="#EAEAEA" transform="translate(6,12)"/>
<path d="M0 0 C0.66 0 1.32 0 2 0 C2.33 3.63 2.66 7.26 3 11 C1.68 10.67 0.36 10.34 -1 10 C-0.67 6.7 -0.34 3.4 0 0 Z " fill="#9C9C9C" transform="translate(11,6)"/>
</svg>
